<svg width="25" height="24" viewBox="0 0 25 24" fill="none" xmlns="http://www.w3.org/2000/svg">
<path d="M1.83333 13.3333H9.83333C10.5667 13.3333 11.1667 12.7333 11.1667 12V1.33333C11.1667 0.6 10.5667 0 9.83333 0H1.83333C1.1 0 0.5 0.6 0.5 1.33333V12C0.5 12.7333 1.1 13.3333 1.83333 13.3333ZM1.83333 24H9.83333C10.5667 24 11.1667 23.4 11.1667 22.6667V17.3333C11.1667 16.6 10.5667 16 9.83333 16H1.83333C1.1 16 0.5 16.6 0.5 17.3333V22.6667C0.5 23.4 1.1 24 1.83333 24ZM15.1667 24H23.1667C23.9 24 24.5 23.4 24.5 22.6667V12C24.5 11.2667 23.9 10.6667 23.1667 10.6667H15.1667C14.4333 10.6667 13.8333 11.2667 13.8333 12V22.6667C13.8333 23.4 14.4333 24 15.1667 24ZM13.8333 1.33333V6.66667C13.8333 7.4 14.4333 8 15.1667 8H23.1667C23.9 8 24.5 7.4 24.5 6.66667V1.33333C24.5 0.6 23.9 0 23.1667 0H15.1667C14.4333 0 13.8333 0.6 13.8333 1.33333Z" fill="#219EBC"/>
</svg>
