<svg width="27" height="24" viewBox="0 0 27 24" fill="none" xmlns="http://www.w3.org/2000/svg">
<path d="M16.4368 24C15.9316 24 15.4473 23.9053 14.9842 23.7158C14.521 23.5263 14.1105 23.2526 13.7526 22.8947L8.19471 17.3053C7.96313 17.0737 7.84187 16.7844 7.83092 16.4375C7.81997 16.0905 7.93071 15.7903 8.16313 15.5368L8.35261 15.3474C8.64734 15.0526 9.00524 14.8526 9.42629 14.7474C9.84734 14.6421 10.2684 14.6421 10.6894 14.7474C11.7797 15.0634 12.8684 14.2454 12.8684 13.1103V6.31579C12.8684 5.95789 12.9897 5.65811 13.2322 5.41642C13.4747 5.17474 13.7745 5.05347 14.1316 5.05263C14.4894 5.05263 14.7897 5.17389 15.0322 5.41642C15.2747 5.65895 15.3956 5.95874 15.3947 6.31579V17.0526C15.3947 17.4737 15.2318 17.8055 14.9059 18.048C14.58 18.2905 14.2061 18.3587 13.7842 18.2526C13.3822 18.1414 13.0939 18.6361 13.3889 18.931L15.5526 21.0947C15.6789 21.2211 15.8158 21.3158 15.9631 21.3789C16.1105 21.4421 16.2684 21.4737 16.4368 21.4737H21.7105C22.4052 21.4737 23.0002 21.2265 23.4953 20.7322C23.9905 20.2379 24.2377 19.6429 24.2368 18.9474V13.8947C24.2368 13.5368 24.3581 13.2371 24.6006 12.9954C24.8431 12.7537 25.1429 12.6324 25.5 12.6316C25.8579 12.6316 26.1581 12.7528 26.4006 12.9954C26.6431 13.2379 26.764 13.5377 26.7631 13.8947V18.9474C26.7631 20.3368 26.2684 21.5263 25.2789 22.5158C24.2894 23.5053 23.1 24 21.7105 24H16.4368ZM17.921 15.1579C17.5631 15.1579 17.2633 15.0366 17.0217 14.7941C16.78 14.5516 16.6587 14.2518 16.6579 13.8947V10.1053C16.6579 9.74737 16.7791 9.44758 17.0217 9.20589C17.2642 8.96421 17.564 8.84295 17.921 8.8421C18.2789 8.8421 18.5791 8.96337 18.8217 9.20589C19.0642 9.44842 19.185 9.74821 19.1842 10.1053V13.8947C19.1842 14.2526 19.0629 14.5528 18.8204 14.7954C18.5779 15.0379 18.2781 15.1587 17.921 15.1579ZM21.7105 15.1579C21.3526 15.1579 21.0528 15.0366 20.8111 14.7941C20.5694 14.5516 20.4482 14.2518 20.4473 13.8947V11.3684C20.4473 11.0105 20.5686 10.7107 20.8111 10.4691C21.0537 10.2274 21.3534 10.1061 21.7105 10.1053C22.0684 10.1053 22.3686 10.2265 22.6111 10.4691C22.8537 10.7116 22.9745 11.0114 22.9737 11.3684V13.8947C22.9737 14.2526 22.8524 14.5528 22.6099 14.7954C22.3673 15.0379 22.0676 15.1587 21.7105 15.1579ZM2.76313 20.2105C2.0684 20.2105 1.47387 19.9634 0.979553 19.4691C0.485238 18.9747 0.237659 18.3798 0.236816 17.6842V2.52632C0.236816 1.83158 0.484395 1.23705 0.979553 0.742737C1.47471 0.248421 2.06924 0.000842105 2.76313 0H21.7105C22.4052 0 23.0002 0.247579 23.4953 0.742737C23.9905 1.23789 24.2377 1.83242 24.2368 2.52632V6.31579C24.2368 6.67368 24.1156 6.97389 23.873 7.21642C23.6305 7.45895 23.3307 7.57979 22.9737 7.57895C22.6158 7.57895 22.316 7.45768 22.0743 7.21516C21.8326 6.97263 21.7113 6.67284 21.7105 6.31579C21.7105 4.22292 20.0139 2.52632 17.921 2.52632H10.3421C6.15634 2.52632 2.76313 5.91953 2.76313 10.1053V15.4105C2.76313 16.6662 3.7811 17.6842 5.03682 17.6842C5.39471 17.6842 5.69492 17.8055 5.93745 18.048C6.17997 18.2905 6.30082 18.5903 6.29997 18.9474C6.29997 19.3053 6.17913 19.6055 5.93745 19.848C5.69576 20.0905 5.39555 20.2114 5.03682 20.2105H2.76313Z" fill="#F1FAEE"/>
</svg>
